<svg xmlns="http://www.w3.org/2000/svg" viewBox="0 0 120 120" width="180" height="180">
    <defs>
        <style>.a{fill:#e5e5e5;}.b{fill:#cdcdcd;}.c{fill:#b8b8b8;}</style>
    </defs>
    <title>Artboard 2 copy</title>
    <path class="a" d="M82.4,72.7l0-.09h0a14.9,14.9,0,0,1,7.95-8.76l.08,0L92.25,61A1.05,1.05,0,0,0,92,59.58C72.88,46.69,47.48,51.93,34.34,71.44a1.07,1.07,0,0,0,.26,1.45l13.32,9.46a1,1,0,0,0,1.34-.26c7.57-10.9,21.83-13.84,32.67-6.76A1,1,0,0,0,83.26,75l.52-.81L83,74A1,1,0,0,1,82.4,72.7Z"></path><circle class="a" cx="68.77" cy="93.8" r="7" transform="translate(-46.18 76.1) rotate(-45)"></circle>
    <path class="a" d="M102.7,48.36a.92.92,0,0,0,1.33-.28l9-14a1.09,1.09,0,0,0-.27-1.45,74.78,74.78,0,0,0-84.95-.37,3.28,3.28,0,0,1-.15,1.32,3.77,3.77,0,0,1-2,2.12,3.72,3.72,0,0,1-2.86.35l-.08,0a80.86,80.86,0,0,0-17,18.65A1.08,1.08,0,0,0,6,56.11l13.32,9.45a.93.93,0,0,0,1.34-.27C39.27,37.27,75.6,29.77,102.7,48.36Z"></path>
    <path class="a" d="M27.36,30.78a3.54,3.54,0,0,0-2.1-1.9,3.74,3.74,0,0,0-2.88.36,3.72,3.72,0,0,0-2,2.11,3.46,3.46,0,0,0,.29,2.82,3.51,3.51,0,0,0,2,1.84c1.66-1.32,3.34-2.59,5.07-3.76A4,4,0,0,0,27.36,30.78Z"></path>
    <path class="a" d="M23.3,17.52q3-4.71.74-9.06a7.76,7.76,0,0,0-5.35-4.23A11.14,11.14,0,0,0,11,5.47Q6.63,7.68,5.34,11.22a9.2,9.2,0,0,0,.47,7.29h0A1,1,0,0,0,7,18.67l3-1.5c.49-.25.75-.73.58-1.06h0a4.71,4.71,0,0,1-.2-3.61,5,5,0,0,1,2.55-2.68,5,5,0,0,1,3.56-.54,3.68,3.68,0,0,1,2.49,2,4.5,4.5,0,0,1,.53,2.82,10.34,10.34,0,0,1-1.52,3.46,9.37,9.37,0,0,0-1.59,4.28A7.18,7.18,0,0,0,17.49,26l.25.48a1,1,0,0,0,1.37.43L22,25.43a1,1,0,0,0,.45-1.34l-.14-.27A4.6,4.6,0,0,1,21.72,21,10.3,10.3,0,0,1,23.3,17.52Z"></path>
    <path class="b" d="M25.67,35.69a3.77,3.77,0,0,0,2-2.12,3.28,3.28,0,0,0,.15-1.32c-1.73,1.17-3.41,2.44-5.07,3.76l.08,0A3.72,3.72,0,0,0,25.67,35.69Z"></path>
    <path class="b" d="M88.53,104a6,6,0,0,0-4.65.09,6.32,6.32,0,0,0-2.78,8.06A6.82,6.82,0,0,0,89.39,115a5.63,5.63,0,0,0,2.93-3.48,5.74,5.74,0,0,0-.15-4.58A6.05,6.05,0,0,0,88.53,104Z"></path>
    <path class="b" d="M113.47,71.53q-3.07-5.19-10.08-7.59-7.4-2.55-12.93-.12l-6.07,9.46h0l-.61,1L89.2,76.1a1,1,0,0,0,1.27-.62l0-.09h0a7.63,7.63,0,0,1,4-4.3,8,8,0,0,1,6,0,8.09,8.09,0,0,1,4.62,3.54,6,6,0,0,1,.44,5.16,7.34,7.34,0,0,1-2.68,3.8,17.11,17.11,0,0,1-5.73,2.12,15.18,15.18,0,0,0-6.76,3,11.67,11.67,0,0,0-3.5,6L86.38,96A1,1,0,0,0,87,97.3l6.07,2.09a1,1,0,0,0,1.27-.62l.36-1a7.35,7.35,0,0,1,2.65-3.81,16.78,16.78,0,0,1,5.83-2.09Q112,90,114.55,82.5A12.54,12.54,0,0,0,113.47,71.53Z"></path>
    <path class="c" d="M90.38,63.85a14.9,14.9,0,0,0-7.95,8.76h0l0,.09A1,1,0,0,0,83,74l.8.28.61-1h0l6.07-9.46Z"></path>
</svg>